# xmcd
#
# Track frame offsets:
#	150
#	15166
#	28113
#	41328
#	51128
#	61304
#	70402
#	80804
#	93826
#	106328
#	118680
#	136394
#	149823
#	160137
#	171886
#	185105
#	196285
#
# Disc length: 2775 seconds
#
# Revision: 0
# Processed by: cddbd v1.5.2PL0 Copyright (c) Steve Scherf et al.
# Submitted via: audiograbber 1.83.01
#
DISCID=f00ad511
DTITLE=Patsy Cline - CCB031
DYEAR=1900
DGENRE=Karaoke
TTITLE0=Patsy Cline - A Church A Courtroom and Then Goodbye
TTITLE1=Patsy Cline - A Poor Mans Roses
TTITLE2=Patsy Cline - Always
TTITLE3=Patsy Cline - Anytime
TTITLE4=Patsy Cline - Back in Babys Arms
TTITLE5=Patsy Cline - Bill Bailey Wont You Please Come Home
TTITLE6=Patsy Cline - Blue moon of Kentucky
TTITLE7=Patsy Cline - Crazy
TTITLE8=Patsy Cline - Crazy Arms
TTITLE9=Patsy Cline - Dear God
TTITLE10=Patsy Cline - Faded Love
TTITLE11=Patsy Cline - Fingerprints
TTITLE12=Patsy Cline - Fooling Around
TTITLE13=Patsy Cline - Half as Much
TTITLE14=Patsy Cline - He Called Me Baby
TTITLE15=Patsy Cline - Heartaches
TTITLE16=Patsy Cline - Hony Tonk Merry Go Round
EXTD=
EXTT0=
EXTT1=
EXTT2=
EXTT3=
EXTT4=
EXTT5=
EXTT6=
EXTT7=
EXTT8=
EXTT9=
EXTT10=
EXTT11=
EXTT12=
EXTT13=
EXTT14=
EXTT15=
EXTT16=Capital Karaoke
PLAYORDER=
